<svg width="158" height="158" viewBox="0 0 158 158" fill="none" xmlns="http://www.w3.org/2000/svg">
<g filter="url(#filter0_d_67_77)">
<rect x="4" y="4" width="150" height="150" rx="25.2767" fill="url(#paint0_linear_67_77)" shape-rendering="crispEdges"/>
</g>
<path d="M19.6625 112.577C17.3181 114.92 16.0007 118.099 16 121.414V134.989C16 136.647 16.6585 138.236 17.8306 139.408C19.0027 140.581 20.5924 141.239 22.25 141.239H41C42.6576 141.239 44.2473 140.581 45.4194 139.408C46.5915 138.236 47.25 136.647 47.25 134.989V128.739C47.25 127.081 47.9085 125.492 49.0806 124.32C50.2527 123.148 51.8424 122.489 53.5 122.489H59.75C61.4076 122.489 62.9973 121.831 64.1694 120.658C65.3415 119.486 66 117.897 66 116.239V109.989C66 108.331 66.6585 106.742 67.8306 105.57C69.0027 104.398 70.5924 103.739 72.25 103.739H73.325C76.6399 103.738 79.8188 102.421 82.1625 100.077L87.25 94.989C95.9365 98.0149 105.393 98.0034 114.072 94.9562C122.751 91.9091 130.139 86.0068 135.027 78.2148C139.916 70.4229 142.015 61.2026 140.982 52.0624C139.949 42.9222 135.844 34.4031 129.34 27.8989C122.836 21.3946 114.317 17.2902 105.177 16.2571C96.0364 15.224 86.8162 17.3234 79.0242 22.2118C71.2323 27.1002 65.3299 34.4882 62.2828 43.1673C59.2357 51.8463 59.2241 61.3026 62.25 69.989L19.6625 112.577Z" fill="url(#paint1_linear_67_77)"/>
<path d="M74.4974 71.4414C76.467 74.9275 82.8508 82.6138 92.6291 85.4703C102.407 88.3268 110.827 85.5834 113.815 83.8547" stroke="#23183E" stroke-width="4" stroke-linecap="round"/>
<path d="M80.8312 43.0724C83.1786 37.4967 90.4905 27.1948 102.775 27.3939C114.478 27.5835 122.201 34.4572 125.053 38.5105" stroke="#23183E" stroke-width="4" stroke-linecap="round"/>
<path d="M78.445 55.2939C78.8946 60.457 82.9688 73.0617 97.5374 75.6011C113.684 78.4156 119.774 69.6232 121.014 61.2369C122.192 53.2672 117.865 40.7143 107.695 37.8279C94.3233 34.0329 87.7582 48.3154 87.6015 53.1906C87.4859 56.786 89.6497 64.0794 97.0216 66.0262C104.393 67.973 108.263 64.5089 109.335 59.9714C110.481 55.1202 108.243 47.2395 104.254 46.2916C100.265 45.3436 95.9602 51.1007 97.3341 54.2449C98.4331 56.7603 100.687 58.1138 101.676 58.4761" stroke="#23183E" stroke-width="4" stroke-linecap="round"/>
<defs>
<filter id="filter0_d_67_77" x="0" y="0" width="158" height="158" filterUnits="userSpaceOnUse" color-interpolation-filters="sRGB">
<feFlood flood-opacity="0" result="BackgroundImageFix"/>
<feColorMatrix in="SourceAlpha" type="matrix" values="0 0 0 0 0 0 0 0 0 0 0 0 0 0 0 0 0 0 127 0" result="hardAlpha"/>
<feOffset/>
<feGaussianBlur stdDeviation="2"/>
<feComposite in2="hardAlpha" operator="out"/>
<feColorMatrix type="matrix" values="0 0 0 0 0 0 0 0 0 0 0 0 0 0 0 0 0 0 0.25 0"/>
<feBlend mode="normal" in2="BackgroundImageFix" result="effect1_dropShadow_67_77"/>
<feBlend mode="normal" in="SourceGraphic" in2="effect1_dropShadow_67_77" result="shape"/>
</filter>
<linearGradient id="paint0_linear_67_77" x1="79" y1="4" x2="79" y2="154" gradientUnits="userSpaceOnUse">
<stop offset="0.0001" stop-color="#1A103D" stop-opacity="0.9624"/>
<stop offset="1" stop-color="#27272A"/>
</linearGradient>
<linearGradient id="paint1_linear_67_77" x1="78.6195" y1="16" x2="78.6195" y2="141.239" gradientUnits="userSpaceOnUse">
<stop stop-color="#FFD543"/>
<stop offset="1" stop-color="#FF6204"/>
</linearGradient>
</defs>
</svg>
